<svg width="133" height="17" viewBox="0 0 133 17" fill="none" xmlns="http://www.w3.org/2000/svg">
<path d="M0.6 16.5L6.528 1.044H11.304L17.232 16.5H12.528L11.232 13.212H6.576L5.304 16.5H0.6ZM7.176 9.972H10.632L8.904 5.436L7.176 9.972ZM21.7352 16.5V10.836L16.1672 1.044H20.8712L23.9912 6.876L27.1112 1.044H31.8152L26.2472 10.836V16.5H21.7352ZM40.0757 16.74C37.5157 16.74 35.5557 16.116 34.1957 14.868C32.8517 13.62 32.1797 11.604 32.1797 8.82C32.1797 6.9 32.4837 5.356 33.0917 4.188C33.6997 3.004 34.5877 2.148 35.7557 1.62C36.9397 1.076 38.3797 0.803999 40.0757 0.803999C41.7717 0.803999 43.2037 1.076 44.3717 1.62C45.5557 2.148 46.4517 3.004 47.0597 4.188C47.6677 5.356 47.9717 6.9 47.9717 8.82C47.9717 11.604 47.2917 13.62 45.9317 14.868C44.5717 16.116 42.6197 16.74 40.0757 16.74ZM40.0757 12.9C41.2277 12.9 42.0597 12.58 42.5717 11.94C43.0997 11.284 43.3637 10.244 43.3637 8.82C43.3637 7.3 43.0997 6.228 42.5717 5.604C42.0597 4.964 41.2277 4.644 40.0757 4.644C38.9237 4.644 38.0837 4.964 37.5557 5.604C37.0437 6.228 36.7877 7.3 36.7877 8.82C36.7877 10.244 37.0437 11.284 37.5557 11.94C38.0837 12.58 38.9237 12.9 40.0757 12.9ZM50.8519 16.5V1.044H58.8919C60.1559 1.044 61.1879 1.276 61.9879 1.74C62.8039 2.204 63.4119 2.852 63.8119 3.684C64.2119 4.5 64.4119 5.452 64.4119 6.54C64.4119 7.58 64.1479 8.5 63.6199 9.3C63.1079 10.084 62.4199 10.684 61.5559 11.1C61.7319 11.244 61.8839 11.42 62.0119 11.628C62.1399 11.82 62.2839 12.092 62.4439 12.444L64.2199 16.5H59.5159L57.8839 12.78C57.7559 12.492 57.5959 12.292 57.4039 12.18C57.2279 12.052 56.9719 11.988 56.6359 11.988H55.3639V16.5H50.8519ZM55.3639 8.532H57.7399C58.3959 8.532 58.8999 8.364 59.2519 8.028C59.6199 7.676 59.8039 7.18 59.8039 6.54C59.8039 5.18 59.1639 4.5 57.8839 4.5H55.3639V8.532ZM67.2863 16.5V1.044H78.9983V4.5H71.7983V7.02H78.1103V10.524H71.7983V13.044H78.9983V16.5H67.2863ZM81.6347 16.5V1.044H85.4747L91.3067 9.228V1.044H95.8187V16.5H91.9547L86.1467 8.34V16.5H81.6347ZM106.587 16.74C104.027 16.74 102.067 16.116 100.707 14.868C99.3626 13.62 98.6906 11.604 98.6906 8.82C98.6906 6.9 98.9946 5.356 99.6026 4.188C100.211 3.004 101.099 2.148 102.267 1.62C103.451 1.076 104.891 0.803999 106.587 0.803999C108.283 0.803999 109.715 1.076 110.883 1.62C112.067 2.148 112.963 3.004 113.571 4.188C114.179 5.356 114.483 6.9 114.483 8.82C114.483 11.604 113.803 13.62 112.443 14.868C111.083 16.116 109.131 16.74 106.587 16.74ZM106.587 12.9C107.739 12.9 108.571 12.58 109.083 11.94C109.611 11.284 109.875 10.244 109.875 8.82C109.875 7.3 109.611 6.228 109.083 5.604C108.571 4.964 107.739 4.644 106.587 4.644C105.435 4.644 104.595 4.964 104.067 5.604C103.555 6.228 103.299 7.3 103.299 8.82C103.299 10.244 103.555 11.284 104.067 11.94C104.595 12.58 105.435 12.9 106.587 12.9ZM121.85 16.5L115.922 1.044H120.626L124.226 11.268L127.826 1.044H132.554L126.626 16.5H121.85Z" fill="#101828"/>
</svg>
